<svg width="23" height="22" viewBox="0 0 23 22" fill="none" xmlns="http://www.w3.org/2000/svg">
<rect width="23" height="22" fill="#E5E5E5"/>
<g id="Desktop - 3" clip-path="url(#clip0_2200_2)">
<rect width="1440" height="4060" transform="translate(-1255 -1937)" fill="white"/>
<rect id="Rectangle 6" x="-1255" y="-357" width="1440" height="800" fill="#000915"/>
<g id="undraw_video_game_night_8h8m 1" clip-path="url(#clip1_2200_2)">
<path id="Vector" d="M0.377106 15.5402C7.06215 22.5774 14.5205 23.7003 22.7521 18.909C19.2978 13.3526 18.4753 7.3088 19.3958 0.942245H3.36043C4.07093 6.5369 3.87984 11.7462 0.377106 15.5402Z" fill="#FFB8B8"/>
<path id="Vector_2" d="M-15.2854 96.7649H37.2959C28.7861 73.7473 29.6146 50.0737 36.8603 25.9495C36.9819 25.549 36.9606 25.1185 36.7998 24.7321C36.6391 24.3457 36.349 24.0278 35.9797 23.8331L20.8875 15.9145C14.9631 19.7838 8.59595 18.5947 1.8688 13.2944L-14.5395 17.7861C-10.0727 44.7132 -9.94586 71.0874 -15.2854 96.7649Z" fill="#9C0332"/>
<path id="Vector_3" d="M9.70006 7.67978C16.2907 7.67978 21.6334 2.31712 21.6334 -4.29806C21.6334 -10.9132 16.2907 -16.2759 9.70006 -16.2759C3.10947 -16.2759 -2.23328 -10.9132 -2.23328 -4.29806C-2.23328 2.31712 3.10947 7.67978 9.70006 7.67978Z" fill="#FFB8B8"/>
<path id="Vector_4" d="M22.3867 -10.8956C22.6251 -12.4957 22.525 -14.1282 22.0928 -15.6868C21.6607 -17.2454 20.9062 -18.6952 19.8785 -19.9415C17.8426 -22.3598 14.4299 -24.3391 8.76801 -23.4054C-3.58511 -21.3681 -7.1473 -11.0458 -5.93705 -8.44993C-4.7268 -5.85403 -1.0172 0.163551 -1.0172 0.163551C-1.0172 0.163551 -3.73976 -5.79326 -0.784881 -7.00577C2.17 -8.21828 13.6053 -12.9949 17.5966 -10.843C18.7264 -10.2736 19.6857 -9.41386 20.3768 -8.35128C21.0679 -7.28871 21.4662 -6.06126 21.531 -4.79396L22.3867 -10.8956Z" fill="#03183F"/>
</g>
</g>
<defs>
<clipPath id="clip0_2200_2">
<rect width="1440" height="4060" fill="white" transform="translate(-1255 -1937)"/>
</clipPath>
<clipPath id="clip1_2200_2">
<rect width="485" height="333" fill="white" transform="translate(-416 -123.5)"/>
</clipPath>
</defs>
</svg>
